<svg width="985" height="223" viewBox="0 0 985 223" fill="none" xmlns="http://www.w3.org/2000/svg">
<path d="M27.4111 222.891L45.5211 116.231H76.5411C77.6911 116.231 78.7711 116.801 79.4211 117.751L115.261 171.931L153.991 117.681C154.641 116.771 155.701 116.221 156.821 116.221H190.461L192.981 222.881H158.661L161.051 154.931L110.531 222.881L69.1311 154.931L61.4311 222.881H27.4111V222.891Z" fill="white"/>
<path d="M75.7607 104.83C81.8507 104.83 87.5407 107.83 90.9707 112.87L91.0307 112.96L91.0907 113.05L114.951 149.13L141.081 112.53C144.531 107.72 150.121 104.85 156.041 104.85H178.571C168.401 78.8705 143.351 60.4805 114.041 60.4805C84.7307 60.4805 59.6807 78.8605 49.5107 104.85H75.7607V104.83Z" fill="#FCB119"/>
<path d="M7.00098 68.0195L37.891 86.7495" stroke="#FCB119" stroke-width="14" stroke-miterlimit="10" stroke-linecap="round" stroke-linejoin="round"/>
<path d="M52.0308 24.0195L69.7108 54.3395" stroke="#FCB119" stroke-width="14" stroke-miterlimit="10" stroke-linecap="round" stroke-linejoin="round"/>
<path d="M114.311 7L114.061 42.43" stroke="#FCB119" stroke-width="14" stroke-miterlimit="10" stroke-linecap="round" stroke-linejoin="round"/>
<path d="M174.771 23.9004L157.791 54.1104" stroke="#FCB119" stroke-width="14" stroke-miterlimit="10" stroke-linecap="round" stroke-linejoin="round"/>
<path d="M189.651 86.7103L219.821 68.1104" stroke="#FCB119" stroke-width="14" stroke-miterlimit="10" stroke-linecap="round" stroke-linejoin="round"/>
<path d="M258.294 147.867L269.708 80.5107H286.973L300.605 116.474L315.04 80.5107H332.514L342.609 147.867H325.134L320.183 109.075L303.912 147.867H296.953L281.409 109.075L275.654 147.867H258.294Z" fill="white"/>
<path d="M432.011 139.397C425.147 145.955 415.454 149.397 405.455 149.397C395.455 149.397 385.762 145.955 378.898 139.397C371.729 132.534 368.287 123.146 368.287 114.256C368.287 105.27 371.729 95.7675 378.898 88.9993C385.762 82.4415 395.455 79 405.455 79C415.454 79 425.147 82.4415 432.011 88.9993C439.181 95.7675 442.622 105.251 442.622 114.256C442.622 123.127 439.181 132.514 432.011 139.397ZM391.823 101.312C388.19 104.849 386.469 109.801 386.469 114.543C386.469 120.508 389.299 124.637 391.823 127.066C395.054 130.201 399.604 132.419 405.455 132.419C411.42 132.419 415.855 130.297 418.991 127.161C422.127 124.026 424.44 119.38 424.44 114.237C424.44 108.979 422.127 104.333 418.991 101.312C415.244 97.775 410.101 95.9587 405.455 95.9587C400.598 95.9587 395.455 97.6794 391.823 101.312Z" fill="white"/>
<path d="M466.96 147.866L478.374 80.5098H495.639L509.271 116.473L523.706 80.5098H541.18L551.275 147.866H533.8L528.849 109.074L512.597 147.866H505.638L490.075 109.074L484.32 147.866H466.96Z" fill="white"/>
<path d="M618.25 95.3654H597.448V106.569H617.141V121.425H597.448V133.03H618.25V147.886H579.974V80.5098H618.25V95.3654Z" fill="white"/>
<path d="M646.928 147.867V80.5107H664.403L696.618 121.713V80.5107H714.093V147.867H696.618L664.403 106.666V147.867H646.928Z" fill="white"/>
<path d="M771.26 95.3663V147.887H753.786V95.3663H739.446V80.5107H785.6V95.3663H771.26Z" fill="white"/>
<path d="M828.427 80.5098V120.411C828.427 123.241 828.523 127.581 831.869 130.812C833.896 132.724 837.127 134.043 840.147 134.043C843.168 134.043 846.304 132.839 848.216 131.118C852.25 127.581 852.154 122.629 852.154 118.901V80.5098H869.629V119.188C869.629 126.262 869.323 133.623 862.058 141.003C856.399 146.758 849.325 149.377 839.842 149.377C829.25 149.377 821.659 145.744 817.53 141.289C811.679 134.923 810.972 126.338 810.972 119.169V80.5098H828.427Z" fill="white"/>
<path d="M898.307 147.867L909.721 80.5107H926.985L940.617 116.474L955.052 80.5107H972.527L982.622 147.867H965.147L960.195 109.075L943.944 147.867H936.985L921.422 109.075L915.667 147.867H898.307Z" fill="white"/>
<path d="M266.056 182.314V213.249H278.426V221.987H255.751V182.314H266.056Z" fill="white"/>
<path d="M327.62 216.997C323.566 220.859 317.869 222.885 311.98 222.885C306.092 222.885 300.375 220.859 296.341 216.997C292.116 212.943 290.089 207.418 290.089 202.179C290.089 196.883 292.116 191.301 296.341 187.305C300.394 183.443 306.092 181.416 311.98 181.416C317.869 181.416 323.586 183.443 327.62 187.305C331.845 191.281 333.872 196.883 333.872 202.179C333.872 207.418 331.845 212.963 327.62 216.997ZM303.95 194.57C301.809 196.654 300.796 199.56 300.796 202.371C300.796 205.888 302.459 208.317 303.95 209.751C305.862 211.586 308.539 212.905 311.98 212.905C315.479 212.905 318.098 211.662 319.953 209.808C321.788 207.972 323.165 205.219 323.165 202.199C323.165 199.101 321.808 196.367 319.953 194.589C317.754 192.505 314.714 191.434 311.98 191.434C309.132 191.415 306.092 192.429 303.95 194.57Z" fill="white"/>
<path d="M369.815 199.502H390.272C390.272 207.36 388.666 212.943 383.906 217.34C379.738 221.202 374.977 222.331 369.93 222.331C362.798 222.331 357.904 219.711 354.711 216.442C351.747 213.459 348.994 208.641 348.994 202.102C348.994 195.793 351.499 190.631 354.94 187.228C358.21 183.958 363.333 181.396 370.35 181.396C374.04 181.396 378.017 182.238 381.057 184.073C384.154 185.985 386.716 189.121 388.131 192.218L378.323 196.271C377.616 194.436 376.487 193.117 375.474 192.294C373.753 190.86 371.899 190.325 369.949 190.325C367.501 190.325 365.016 191.224 363.161 193.059C360.848 195.373 359.72 199.063 359.72 202.16C359.72 205.792 361.039 208.756 362.875 210.725C364.767 212.752 367.1 213.765 370.121 213.765C371.899 213.765 373.983 213.459 375.837 211.93C376.793 211.165 377.921 209.731 378.285 207.532H369.834V199.502H369.815Z" fill="white"/>
<path d="M417.461 182.314V221.987H407.175V182.314H417.461Z" fill="white"/>
<path d="M438.759 210.094C440.957 212.178 444.284 214.148 447.859 214.148C449.943 214.148 451.186 213.498 451.855 212.771C452.448 212.178 452.869 211.28 452.869 210.266C452.869 209.502 452.563 208.603 451.741 207.876C450.727 206.978 449.179 206.576 446.617 205.793L443.94 204.951C442.277 204.416 439.829 203.517 438.223 201.739C436.197 199.541 435.967 196.749 435.967 194.723C435.967 189.847 437.86 186.865 439.6 185.144C441.627 183.117 444.953 181.396 449.771 181.396C453.691 181.396 458.279 182.639 462.027 184.608L457.916 192.639C454.819 190.191 452.505 189.962 451.129 189.962C450.115 189.962 448.739 190.191 447.745 191.147C447.152 191.74 446.731 192.39 446.731 193.289C446.731 193.996 446.846 194.531 447.267 195.067C447.573 195.43 448.28 196.137 450.708 196.845L453.863 197.801C456.367 198.565 458.987 199.464 461.071 201.72C463.097 203.861 463.633 206.06 463.633 208.794C463.633 212.427 462.734 215.926 459.885 218.793C456.501 222.178 452.391 222.847 448.165 222.847C445.661 222.847 443.29 222.617 440.365 221.547C439.715 221.317 437.21 220.361 434.361 218.392L438.759 210.094Z" fill="white"/>
<path d="M495.467 191.07V222.005H485.181V191.07H476.73V182.333H503.918V191.07H495.467Z" fill="white"/>
<path d="M529.136 182.314V221.987H518.85V182.314H529.136Z" fill="white"/>
<path d="M576.322 220.916C572.211 222.407 569.955 222.885 567.393 222.885C560.491 222.885 555.31 220.151 552.041 216.939C548.178 213.077 546.037 207.666 546.037 202.485C546.037 196.826 548.484 191.472 552.041 187.859C555.558 184.283 560.835 181.664 567.03 181.664C568.942 181.664 572.02 181.97 576.303 183.691V196.003C572.976 191.893 569.057 191.663 567.317 191.663C564.334 191.663 562.078 192.562 560.185 194.283C557.738 196.539 556.744 199.636 556.744 202.427C556.744 205.161 557.872 208.201 559.956 210.152C561.677 211.758 564.411 212.886 567.336 212.886C568.884 212.886 572.689 212.714 576.322 208.718V220.916Z" fill="white"/>
<path d="M595.841 210.094C598.04 212.178 601.366 214.148 604.942 214.148C607.026 214.148 608.268 213.498 608.918 212.771C609.511 212.178 609.932 211.28 609.932 210.266C609.932 209.502 609.626 208.603 608.804 207.876C607.79 206.978 606.242 206.576 603.68 205.793L601.003 204.951C599.34 204.416 596.892 203.517 595.286 201.739C593.26 199.541 593.03 196.749 593.03 194.723C593.03 189.847 594.942 186.865 596.663 185.144C598.69 183.117 602.016 181.396 606.834 181.396C610.754 181.396 615.342 182.639 619.09 184.608L614.979 192.639C611.882 190.191 609.568 189.962 608.192 189.962C607.179 189.962 605.821 190.191 604.808 191.147C604.215 191.74 603.794 192.39 603.794 193.289C603.794 193.996 603.909 194.531 604.33 195.067C604.617 195.43 605.343 196.137 607.771 196.845L610.926 197.801C613.431 198.565 616.05 199.464 618.115 201.72C620.141 203.861 620.677 206.06 620.677 208.794C620.677 212.427 619.778 215.926 616.929 218.793C613.545 222.178 609.435 222.847 605.209 222.847C602.705 222.847 600.334 222.617 597.409 221.547C596.759 221.317 594.254 220.361 591.405 218.392L595.841 210.094Z" fill="white"/>
<path d="M664.384 210.094C666.582 212.178 669.909 214.148 673.484 214.148C675.568 214.148 676.811 213.498 677.48 212.771C678.073 212.178 678.494 211.28 678.494 210.266C678.494 209.502 678.188 208.603 677.366 207.876C676.352 206.978 674.804 206.576 672.242 205.793L669.565 204.951C667.902 204.416 665.454 203.517 663.848 201.739C661.822 199.541 661.592 196.749 661.592 194.723C661.592 189.847 663.485 186.865 665.225 185.144C667.252 183.117 670.578 181.396 675.396 181.396C679.316 181.396 683.904 182.639 687.652 184.608L683.541 192.639C680.444 190.191 678.13 189.962 676.754 189.962C675.74 189.962 674.364 190.191 673.37 191.147C672.777 191.74 672.356 192.39 672.356 193.289C672.356 193.996 672.471 194.531 672.892 195.067C673.198 195.43 673.905 196.137 676.333 196.845L679.488 197.801C681.992 198.565 684.612 199.464 686.696 201.72C688.722 203.861 689.258 206.06 689.258 208.794C689.258 212.427 688.359 215.926 685.51 218.793C682.126 222.178 678.016 222.847 673.79 222.847C671.286 222.847 668.915 222.617 665.99 221.547C665.34 221.317 662.835 220.361 659.986 218.392L664.384 210.094Z" fill="white"/>
<path d="M728.624 191.071H716.369V197.667H727.974V206.405H716.369V213.249H728.624V221.987H706.083V182.314H728.624V191.071Z" fill="white"/>
<path d="M761.585 182.314C764.549 182.314 768.373 182.792 771.279 185.813C773.535 188.127 774.663 191.587 774.663 194.742C774.663 198.126 773.478 201.109 771.508 203.02C769.96 204.512 767.876 205.391 766.04 205.754L778.468 221.987H765.677L755.811 206.768V221.987H745.525V182.314H761.585ZM755.831 200.114H757.8C759.348 200.114 761.547 199.694 762.79 198.508C763.574 197.724 764.109 196.424 764.109 195.182C764.109 193.996 763.631 192.677 762.752 191.855C761.796 190.899 760.075 190.306 757.819 190.306H755.85V200.114H755.831Z" fill="white"/>
<path d="M798.064 182.314L807.586 206.462L817.222 182.314H828.406L811.505 221.987H803.475L786.822 182.314H798.064Z" fill="white"/>
<path d="M853.224 182.314V221.987H842.938V182.314H853.224Z" fill="white"/>
<path d="M900.391 220.916C896.281 222.407 894.024 222.885 891.462 222.885C884.56 222.885 879.379 220.151 876.11 216.939C872.248 213.077 870.106 207.666 870.106 202.485C870.106 196.826 872.554 191.472 876.11 187.859C879.628 184.283 884.905 181.664 891.099 181.664C893.011 181.664 896.089 181.97 900.372 183.691V196.003C897.045 191.893 893.126 191.663 891.386 191.663C888.403 191.663 886.147 192.562 884.255 194.283C881.807 196.539 880.813 199.636 880.813 202.427C880.813 205.161 881.941 208.201 884.025 210.152C885.746 211.758 888.48 212.886 891.405 212.886C892.954 212.886 896.759 212.714 900.391 208.718V220.916Z" fill="white"/>
<path d="M939.833 191.071H927.578V197.667H939.183V206.405H927.578V213.249H939.833V221.987H917.292V182.314H939.833V191.071Z" fill="white"/>
<path d="M959.355 210.094C961.553 212.178 964.88 214.148 968.455 214.148C970.539 214.148 971.782 213.498 972.432 212.771C973.025 212.178 973.445 211.28 973.445 210.266C973.445 209.502 973.139 208.603 972.317 207.876C971.304 206.978 969.755 206.576 967.193 205.793L964.517 204.951C962.853 204.416 960.406 203.517 958.8 201.739C956.773 199.541 956.544 196.749 956.544 194.723C956.544 189.847 958.456 186.865 960.177 185.144C962.203 183.117 965.53 181.396 970.348 181.396C974.268 181.396 978.856 182.639 982.603 184.608L978.493 192.639C975.396 190.191 973.082 189.962 971.706 189.962C970.692 189.962 969.335 190.191 968.321 191.147C967.729 191.74 967.308 192.39 967.308 193.289C967.308 193.996 967.423 194.531 967.843 195.067C968.13 195.43 968.857 196.137 971.285 196.845L974.44 197.801C976.944 198.565 979.564 199.464 981.628 201.72C983.655 203.861 984.19 206.06 984.19 208.794C984.19 212.427 983.292 215.926 980.443 218.793C977.059 222.178 972.948 222.847 968.723 222.847C966.218 222.847 963.848 222.617 960.922 221.547C960.272 221.317 957.768 220.361 954.919 218.392L959.355 210.094Z" fill="white"/>
</svg>
